<svg width="43" height="43" viewBox="0 0 43 43" fill="none" xmlns="http://www.w3.org/2000/svg">
<path d="M25.2793 21.5C25.2793 23.5871 23.5871 25.2793 21.5 25.2793C19.4129 25.2793 17.7207 23.5871 17.7207 21.5C17.7207 19.4129 19.4129 17.7207 21.5 17.7207C23.5871 17.7207 25.2793 19.4129 25.2793 21.5Z" fill="black"/>
<path d="M27.8828 10.0781H15.1172C12.3385 10.0781 10.0781 12.3385 10.0781 15.1172V27.8828C10.0781 30.6615 12.3385 32.9219 15.1172 32.9219H27.8828C30.6615 32.9219 32.9219 30.6615 32.9219 27.8828V15.1172C32.9219 12.3385 30.6615 10.0781 27.8828 10.0781ZM21.5 27.7988C18.0268 27.7988 15.2012 24.9732 15.2012 21.5C15.2012 18.0268 18.0268 15.2012 21.5 15.2012C24.9732 15.2012 27.7988 18.0268 27.7988 21.5C27.7988 24.9732 24.9732 27.7988 21.5 27.7988ZM28.7227 15.5371C28.0268 15.5371 27.4629 14.9732 27.4629 14.2773C27.4629 13.5815 28.0268 13.0176 28.7227 13.0176C29.4185 13.0176 29.9824 13.5815 29.9824 14.2773C29.9824 14.9732 29.4185 15.5371 28.7227 15.5371Z" fill="black"/>
<path d="M31.6621 0H11.3379C5.0863 0 0 5.0863 0 11.3379V31.6621C0 37.9137 5.0863 43 11.3379 43H31.6621C37.9137 43 43 37.9137 43 31.6621V11.3379C43 5.0863 37.9137 0 31.6621 0ZM35.4414 27.8828C35.4414 32.0505 32.0505 35.4414 27.8828 35.4414H15.1172C10.9495 35.4414 7.55859 32.0505 7.55859 27.8828V15.1172C7.55859 10.9495 10.9495 7.55859 15.1172 7.55859H27.8828C32.0505 7.55859 35.4414 10.9495 35.4414 15.1172V27.8828Z" fill="black"/>
</svg>
