<svg width="45" height="45" viewBox="0 0 45 45" fill="none" xmlns="http://www.w3.org/2000/svg">
<path d="M42.7703 0.195244C42.5291 -0.000760325 42.2051 -0.0531895 41.9163 0.0561499C41.6274 0.165758 41.4159 0.42163 41.3589 0.730469C40.7749 3.89656 37.4347 3.66291 33.1294 3.02893C31.6096 2.80514 30.2973 2.61164 29.3341 2.76069C27.3164 3.07248 25.5839 3.90929 24.3238 5.18094C23.0199 6.49669 22.2125 8.25248 21.9116 10.4161L20.0429 8.51041C19.8386 8.30213 19.547 8.20973 19.2628 8.26261C18.9787 8.31575 18.7383 8.5079 18.6199 8.77659C17.8494 10.5243 17.444 12.266 17.4055 13.9731C17.3037 13.9611 17.2006 13.9543 17.0965 13.9543C16.3909 13.9543 15.7288 14.2333 15.2322 14.7397C14.7357 15.2462 14.4622 15.9214 14.4622 16.641C14.4622 17.3605 14.7357 18.0358 15.2323 18.5421L15.9407 19.2646L0.583466 40.5135C0.573623 40.5271 0.564132 40.5412 0.554992 40.5554C-0.101657 41.581 -0.326634 43.1761 0.73093 44.2546C1.25224 44.7863 1.89641 45 2.53636 45C3.19468 45 3.84834 44.7736 4.35832 44.434C4.37238 44.4247 4.38618 44.4149 4.39971 44.4047L25.2242 28.732L25.9324 29.4542C26.4289 29.9606 27.0911 30.2395 27.7966 30.2395C28.5022 30.2395 29.1643 29.9606 29.6609 29.4541C30.1575 28.9476 30.431 28.2724 30.431 27.5529C30.431 27.4476 30.4245 27.3435 30.4129 27.2405C32.1002 27.205 33.812 26.7942 35.5197 26.0113C35.7832 25.8904 35.9717 25.6453 36.0237 25.3556C36.0757 25.0658 35.9851 24.7684 35.7807 24.5601L33.5341 22.269C37.4608 21.6481 39.6997 19.7641 40.9217 18.1819C42.4634 16.1855 42.7621 14.2311 42.7741 14.1489C42.8222 13.8183 42.6859 13.4879 42.4206 13.2918C42.1551 13.0956 41.8049 13.0664 41.5117 13.2158C39.2465 14.3708 36.8745 14.0555 36.0333 13.3838C35.9596 13.3249 35.7907 13.1754 35.8162 13.06C35.905 12.6579 36.9715 11.6911 40.3727 10.9102C42.5136 10.4187 44.3096 8.49975 44.8418 6.13524C45.3566 3.84807 44.6016 1.68298 42.7703 0.195244V0.195244ZM3.37906 42.9453C3.02789 43.1707 2.3534 43.3742 1.97384 42.9872C1.59419 42.6001 1.79403 41.912 2.01505 41.554L17.1979 20.5465L23.9676 27.4503L3.37906 42.9453ZM29.4361 25.4224L27.1071 23.0473C26.7638 22.6974 26.2076 22.6974 25.8642 23.0473C25.521 23.3972 25.521 23.9647 25.8642 24.3148L28.4181 26.9193C28.7608 27.2687 28.7608 27.8373 28.4181 28.1868C28.2535 28.3547 28.0328 28.4471 27.7967 28.4471C27.5607 28.4471 27.34 28.3547 27.1754 28.1868L16.4751 17.2746C16.3105 17.1067 16.2199 16.8817 16.2198 16.641C16.2198 16.4001 16.3105 16.1751 16.475 16.0072C16.6397 15.8394 16.8604 15.7469 17.0965 15.7469C17.3327 15.7469 17.5534 15.8393 17.7179 16.0071L20.2713 18.6113C20.6146 18.9614 21.1711 18.9613 21.5142 18.6113C21.8574 18.2613 21.8574 17.6938 21.5142 17.3438L19.1857 14.9691C19.0842 13.5959 19.2724 12.1805 19.7473 10.7441L33.5894 24.8604C32.1863 25.3397 30.7947 25.5279 29.4361 25.4224V25.4224ZM29.3585 14.4207C29.5504 15.6111 30.3781 16.5394 31.8189 17.1799C31.8226 17.1816 31.8264 17.1832 31.8302 17.1849C31.8233 17.2922 31.7581 17.5132 31.5571 17.7714C31.1888 18.2444 30.6049 18.5491 29.9548 18.6186L26.1208 14.7086C26.3901 13.3137 27.0249 12.2478 27.9738 11.6122C28.666 11.1484 29.51 10.9231 30.4326 10.9466C29.787 11.8513 29.1489 13.12 29.3585 14.4207ZM43.1288 5.73418C42.7506 7.41424 41.4586 8.82364 39.9867 9.16152C36.414 9.98174 34.4339 11.161 34.1016 12.6663C33.9285 13.4505 34.2376 14.2264 34.9497 14.7951C36.0574 15.6795 38.2041 16.1065 40.4915 15.5081C40.2598 16.0062 39.9359 16.5733 39.4871 17.1418C37.8304 19.2405 35.2934 20.4184 31.9431 20.6464L31.3852 20.0774C32.5786 19.5613 33.3789 18.5476 33.5531 17.5504C33.7146 16.6256 33.3013 15.8354 32.4985 15.5266C31.6548 15.1471 31.1822 14.678 31.0932 14.1323C30.9062 12.9845 32.2525 11.4325 32.7378 10.9803C32.9748 10.7611 33.0763 10.4277 33.0025 10.1102C32.9288 9.79255 32.6917 9.54089 32.3834 9.45324C30.3972 8.88844 28.4885 9.1228 27.0089 10.1138C25.9346 10.8335 25.1497 11.9024 24.6898 13.2492L23.5402 12.0768C23.6773 6.60585 26.8924 4.95079 29.5975 4.5327C30.3034 4.4239 31.5542 4.60789 32.8781 4.80291C34.7962 5.08522 36.9704 5.40535 38.8477 5.09302C40.6472 4.79341 41.8998 3.95204 42.5891 2.58476C43.3832 3.76992 43.2922 5.00797 43.1288 5.73418V5.73418Z" fill="white"/>
</svg>
