<svg width="43" height="35" viewBox="0 0 43 35" fill="none" xmlns="http://www.w3.org/2000/svg">
<path d="M43 4.16731C41.4009 4.86875 39.6971 5.33369 37.9206 5.55944C39.7481 4.46831 41.1429 2.75369 41.7987 0.687C40.0948 1.70287 38.2136 2.42044 36.2087 2.82088C34.5908 1.09819 32.2849 0.03125 29.7694 0.03125C24.8889 0.03125 20.9598 3.99263 20.9598 8.84894C20.9598 9.54769 21.0189 10.2196 21.1641 10.8592C13.8352 10.5017 7.35031 6.98919 2.99387 1.63838C2.23331 2.95794 1.78719 4.46831 1.78719 6.09425C1.78719 9.14725 3.35938 11.8536 5.70288 13.4204C4.28656 13.3935 2.89713 12.9823 1.72 12.3346C1.72 12.3615 1.72 12.3964 1.72 12.4314C1.72 16.7153 4.77569 20.2735 8.78275 21.0932C8.06519 21.2894 7.28312 21.3834 6.4715 21.3834C5.90712 21.3834 5.33737 21.3512 4.80256 21.2329C5.94475 24.724 9.18588 27.2906 13.0398 27.3739C10.0405 29.7201 6.23231 31.1337 2.10969 31.1337C1.38675 31.1337 0.693375 31.1014 0 31.0127C3.90494 33.5309 8.53281 34.9688 13.5235 34.9688C29.7452 34.9688 38.614 21.5312 38.614 9.88363C38.614 9.49394 38.6006 9.11769 38.5817 8.74413C40.3313 7.5025 41.8014 5.95181 43 4.16731Z" fill="black"/>
</svg>
